solid games/m4tch-666ax
  facet normal 8.091037e-1 1.065205e-1 5.779312e-1
    outer loop
      vertex 0.000000e+0 0.000000e+0 2.800000e+1
      vertex 1.000000e+1 0.000000e+0 1.400000e+1
      vertex 9.659258e+0 2.588190e+0 1.400000e+1
    endloop
  endfacet
  facet normal 0.000000e+0 0.000000e+0 -1.000000e+0
    outer loop
      vertex 0.000000e+0 0.000000e+0 1.400000e+1
      vertex 9.659258e+0 2.588190e+0 1.400000e+1
      vertex 1.000000e+1 0.000000e+0 1.400000e+1
    endloop
  endfacet
  facet normal 7.539647e-1 3.123024e-1 5.779312e-1
    outer loop
      vertex 0.000000e+0 0.000000e+0 2.800000e+1
      vertex 9.659258e+0 2.588190e+0 1.400000e+1
      vertex 8.660254e+0 5.000000e+0 1.400000e+1
    endloop
  endfacet
  facet normal 0.000000e+0 0.000000e+0 -1.000000e+0
    outer loop
      vertex 0.000000e+0 0.000000e+0 1.400000e+1
      vertex 8.660254e+0 5.000000e+0 1.400000e+1
      vertex 9.659258e+0 2.588190e+0 1.400000e+1
    endloop
  endfacet
  facet normal 6.474441e-1 4.968014e-1 5.779312e-1
    outer loop
      vertex 0.000000e+0 0.000000e+0 2.800000e+1
      vertex 8.660254e+0 5.000000e+0 1.400000e+1
      vertex 7.071068e+0 7.071068e+0 1.400000e+1
    endloop
  endfacet
  facet normal 0.000000e+0 0.000000e+0 -1.000000e+0
    outer loop
      vertex 0.000000e+0 0.000000e+0 1.400000e+1
      vertex 7.071068e+0 7.071068e+0 1.400000e+1
      vertex 8.660254e+0 5.000000e+0 1.400000e+1
    endloop
  endfacet
  facet normal 4.968014e-1 6.474441e-1 5.779312e-1
    outer loop
      vertex 0.000000e+0 0.000000e+0 2.800000e+1
      vertex 7.071068e+0 7.071068e+0 1.400000e+1
      vertex 5.000000e+0 8.660254e+0 1.400000e+1
    endloop
  endfacet
  facet normal 0.000000e+0 0.000000e+0 -1.000000e+0
    outer loop
      vertex 0.000000e+0 0.000000e+0 1.400000e+1
      vertex 5.000000e+0 8.660254e+0 1.400000e+1
      vertex 7.071068e+0 7.071068e+0 1.400000e+1
    endloop
  endfacet
  facet normal 3.123024e-1 7.539647e-1 5.779312e-1
    outer loop
      vertex 0.000000e+0 0.000000e+0 2.800000e+1
      vertex 5.000000e+0 8.660254e+0 1.400000e+1
      vertex 2.588190e+0 9.659258e+0 1.400000e+1
    endloop
  endfacet
  facet normal 0.000000e+0 0.000000e+0 -1.000000e+0
    outer loop
      vertex 0.000000e+0 0.000000e+0 1.400000e+1
      vertex 2.588190e+0 9.659258e+0 1.400000e+1
      vertex 5.000000e+0 8.660254e+0 1.400000e+1
    endloop
  endfacet
  facet normal 1.065205e-1 8.091037e-1 5.779312e-1
    outer loop
      vertex 0.000000e+0 0.000000e+0 2.800000e+1
      vertex 2.588190e+0 9.659258e+0 1.400000e+1
      vertex 6.123234e-16 1.000000e+1 1.400000e+1
    endloop
  endfacet
  facet normal 0.000000e+0 0.000000e+0 -1.000000e+0
    outer loop
      vertex 0.000000e+0 0.000000e+0 1.400000e+1
      vertex 6.123234e-16 1.000000e+1 1.400000e+1
      vertex 2.588190e+0 9.659258e+0 1.400000e+1
    endloop
  endfacet
  facet normal -1.065205e-1 8.091037e-1 5.779312e-1
    outer loop
      vertex 0.000000e+0 0.000000e+0 2.800000e+1
      vertex 6.123234e-16 1.000000e+1 1.400000e+1
      vertex -2.588190e+0 9.659258e+0 1.400000e+1
    endloop
  endfacet
  facet normal 0.000000e+0 0.000000e+0 -1.000000e+0
    outer loop
      vertex 0.000000e+0 0.000000e+0 1.400000e+1
      vertex -2.588190e+0 9.659258e+0 1.400000e+1
      vertex 6.123234e-16 1.000000e+1 1.400000e+1
    endloop
  endfacet
  facet normal -3.123024e-1 7.539647e-1 5.779312e-1
    outer loop
      vertex 0.000000e+0 0.000000e+0 2.800000e+1
      vertex -2.588190e+0 9.659258e+0 1.400000e+1
      vertex -5.000000e+0 8.660254e+0 1.400000e+1
    endloop
  endfacet
  facet normal 0.000000e+0 0.000000e+0 -1.000000e+0
    outer loop
      vertex 0.000000e+0 0.000000e+0 1.400000e+1
      vertex -5.000000e+0 8.660254e+0 1.400000e+1
      vertex -2.588190e+0 9.659258e+0 1.400000e+1
    endloop
  endfacet
  facet normal -4.968014e-1 6.474441e-1 5.779312e-1
    outer loop
      vertex 0.000000e+0 0.000000e+0 2.800000e+1
      vertex -5.000000e+0 8.660254e+0 1.400000e+1
      vertex -7.071068e+0 7.071068e+0 1.400000e+1
    endloop
  endfacet
  facet normal 0.000000e+0 0.000000e+0 -1.000000e+0
    outer loop
      vertex 0.000000e+0 0.000000e+0 1.400000e+1
      vertex -7.071068e+0 7.071068e+0 1.400000e+1
      vertex -5.000000e+0 8.660254e+0 1.400000e+1
    endloop
  endfacet
  facet normal -6.474441e-1 4.968014e-1 5.779312e-1
    outer loop
      vertex 0.000000e+0 0.000000e+0 2.800000e+1
      vertex -7.071068e+0 7.071068e+0 1.400000e+1
      vertex -8.660254e+0 5.000000e+0 1.400000e+1
    endloop
  endfacet
  facet normal 0.000000e+0 0.000000e+0 -1.000000e+0
    outer loop
      vertex 0.000000e+0 0.000000e+0 1.400000e+1
      vertex -8.660254e+0 5.000000e+0 1.400000e+1
      vertex -7.071068e+0 7.071068e+0 1.400000e+1
    endloop
  endfacet
  facet normal -7.539647e-1 3.123024e-1 5.779312e-1
    outer loop
      vertex 0.000000e+0 0.000000e+0 2.800000e+1
      vertex -8.660254e+0 5.000000e+0 1.400000e+1
      vertex -9.659258e+0 2.588190e+0 1.400000e+1
    endloop
  endfacet
  facet normal 0.000000e+0 0.000000e+0 -1.000000e+0
    outer loop
      vertex 0.000000e+0 0.000000e+0 1.400000e+1
      vertex -9.659258e+0 2.588190e+0 1.400000e+1
      vertex -8.660254e+0 5.000000e+0 1.400000e+1
    endloop
  endfacet
  facet normal -8.091037e-1 1.065205e-1 5.779312e-1
    outer loop
      vertex 0.000000e+0 0.000000e+0 2.800000e+1
      vertex -9.659258e+0 2.588190e+0 1.400000e+1
      vertex -1.000000e+1 1.224647e-15 1.400000e+1
    endloop
  endfacet
  facet normal 0.000000e+0 0.000000e+0 -1.000000e+0
    outer loop
      vertex 0.000000e+0 0.000000e+0 1.400000e+1
      vertex -1.000000e+1 1.224647e-15 1.400000e+1
      vertex -9.659258e+0 2.588190e+0 1.400000e+1
    endloop
  endfacet
  facet normal -8.091037e-1 -1.065205e-1 5.779312e-1
    outer loop
      vertex 0.000000e+0 0.000000e+0 2.800000e+1
      vertex -1.000000e+1 1.224647e-15 1.400000e+1
      vertex -9.659258e+0 -2.588190e+0 1.400000e+1
    endloop
  endfacet
  facet normal 0.000000e+0 0.000000e+0 -1.000000e+0
    outer loop
      vertex 0.000000e+0 0.000000e+0 1.400000e+1
      vertex -9.659258e+0 -2.588190e+0 1.400000e+1
      vertex -1.000000e+1 1.224647e-15 1.400000e+1
    endloop
  endfacet
  facet normal -7.539647e-1 -3.123024e-1 5.779312e-1
    outer loop
      vertex 0.000000e+0 0.000000e+0 2.800000e+1
      vertex -9.659258e+0 -2.588190e+0 1.400000e+1
      vertex -8.660254e+0 -5.000000e+0 1.400000e+1
    endloop
  endfacet
  facet normal 0.000000e+0 0.000000e+0 -1.000000e+0
    outer loop
      vertex 0.000000e+0 0.000000e+0 1.400000e+1
      vertex -8.660254e+0 -5.000000e+0 1.400000e+1
      vertex -9.659258e+0 -2.588190e+0 1.400000e+1
    endloop
  endfacet
  facet normal -6.474441e-1 -4.968014e-1 5.779312e-1
    outer loop
      vertex 0.000000e+0 0.000000e+0 2.800000e+1
      vertex -8.660254e+0 -5.000000e+0 1.400000e+1
      vertex -7.071068e+0 -7.071068e+0 1.400000e+1
    endloop
  endfacet
  facet normal 0.000000e+0 0.000000e+0 -1.000000e+0
    outer loop
      vertex 0.000000e+0 0.000000e+0 1.400000e+1
      vertex -7.071068e+0 -7.071068e+0 1.400000e+1
      vertex -8.660254e+0 -5.000000e+0 1.400000e+1
    endloop
  endfacet
  facet normal -4.968014e-1 -6.474441e-1 5.779312e-1
    outer loop
      vertex 0.000000e+0 0.000000e+0 2.800000e+1
      vertex -7.071068e+0 -7.071068e+0 1.400000e+1
      vertex -5.000000e+0 -8.660254e+0 1.400000e+1
    endloop
  endfacet
  facet normal 0.000000e+0 0.000000e+0 -1.000000e+0
    outer loop
      vertex 0.000000e+0 0.000000e+0 1.400000e+1
      vertex -5.000000e+0 -8.660254e+0 1.400000e+1
      vertex -7.071068e+0 -7.071068e+0 1.400000e+1
    endloop
  endfacet
  facet normal -3.123024e-1 -7.539647e-1 5.779312e-1
    outer loop
      vertex 0.000000e+0 0.000000e+0 2.800000e+1
      vertex -5.000000e+0 -8.660254e+0 1.400000e+1
      vertex -2.588190e+0 -9.659258e+0 1.400000e+1
    endloop
  endfacet
  facet normal 0.000000e+0 0.000000e+0 -1.000000e+0
    outer loop
      vertex 0.000000e+0 0.000000e+0 1.400000e+1
      vertex -2.588190e+0 -9.659258e+0 1.400000e+1
      vertex -5.000000e+0 -8.660254e+0 1.400000e+1
    endloop
  endfacet
  facet normal -1.065205e-1 -8.091037e-1 5.779312e-1
    outer loop
      vertex 0.000000e+0 0.000000e+0 2.800000e+1
      vertex -2.588190e+0 -9.659258e+0 1.400000e+1
      vertex -1.836970e-15 -1.000000e+1 1.400000e+1
    endloop
  endfacet
  facet normal 0.000000e+0 0.000000e+0 -1.000000e+0
    outer loop
      vertex 0.000000e+0 0.000000e+0 1.400000e+1
      vertex -1.836970e-15 -1.000000e+1 1.400000e+1
      vertex -2.588190e+0 -9.659258e+0 1.400000e+1
    endloop
  endfacet
  facet normal 1.065205e-1 -8.091037e-1 5.779312e-1
    outer loop
      vertex 0.000000e+0 0.000000e+0 2.800000e+1
      vertex -1.836970e-15 -1.000000e+1 1.400000e+1
      vertex 2.588190e+0 -9.659258e+0 1.400000e+1
    endloop
  endfacet
  facet normal 0.000000e+0 0.000000e+0 -1.000000e+0
    outer loop
      vertex 0.000000e+0 0.000000e+0 1.400000e+1
      vertex 2.588190e+0 -9.659258e+0 1.400000e+1
      vertex -1.836970e-15 -1.000000e+1 1.400000e+1
    endloop
  endfacet
  facet normal 3.123024e-1 -7.539647e-1 5.779312e-1
    outer loop
      vertex 0.000000e+0 0.000000e+0 2.800000e+1
      vertex 2.588190e+0 -9.659258e+0 1.400000e+1
      vertex 5.000000e+0 -8.660254e+0 1.400000e+1
    endloop
  endfacet
  facet normal 0.000000e+0 0.000000e+0 -1.000000e+0
    outer loop
      vertex 0.000000e+0 0.000000e+0 1.400000e+1
      vertex 5.000000e+0 -8.660254e+0 1.400000e+1
      vertex 2.588190e+0 -9.659258e+0 1.400000e+1
    endloop
  endfacet
  facet normal 4.968014e-1 -6.474441e-1 5.779312e-1
    outer loop
      vertex 0.000000e+0 0.000000e+0 2.800000e+1
      vertex 5.000000e+0 -8.660254e+0 1.400000e+1
      vertex 7.071068e+0 -7.071068e+0 1.400000e+1
    endloop
  endfacet
  facet normal 0.000000e+0 0.000000e+0 -1.000000e+0
    outer loop
      vertex 0.000000e+0 0.000000e+0 1.400000e+1
      vertex 7.071068e+0 -7.071068e+0 1.400000e+1
      vertex 5.000000e+0 -8.660254e+0 1.400000e+1
    endloop
  endfacet
  facet normal 6.474441e-1 -4.968014e-1 5.779312e-1
    outer loop
      vertex 0.000000e+0 0.000000e+0 2.800000e+1
      vertex 7.071068e+0 -7.071068e+0 1.400000e+1
      vertex 8.660254e+0 -5.000000e+0 1.400000e+1
    endloop
  endfacet
  facet normal 0.000000e+0 0.000000e+0 -1.000000e+0
    outer loop
      vertex 0.000000e+0 0.000000e+0 1.400000e+1
      vertex 8.660254e+0 -5.000000e+0 1.400000e+1
      vertex 7.071068e+0 -7.071068e+0 1.400000e+1
    endloop
  endfacet
  facet normal 7.539647e-1 -3.123024e-1 5.779312e-1
    outer loop
      vertex 0.000000e+0 0.000000e+0 2.800000e+1
      vertex 8.660254e+0 -5.000000e+0 1.400000e+1
      vertex 9.659258e+0 -2.588190e+0 1.400000e+1
    endloop
  endfacet
  facet normal 0.000000e+0 0.000000e+0 -1.000000e+0
    outer loop
      vertex 0.000000e+0 0.000000e+0 1.400000e+1
      vertex 9.659258e+0 -2.588190e+0 1.400000e+1
      vertex 8.660254e+0 -5.000000e+0 1.400000e+1
    endloop
  endfacet
  facet normal 8.091037e-1 -1.065205e-1 5.779312e-1
    outer loop
      vertex 0.000000e+0 0.000000e+0 2.800000e+1
      vertex 9.659258e+0 -2.588190e+0 1.400000e+1
      vertex 1.000000e+1 0.000000e+0 1.400000e+1
    endloop
  endfacet
  facet normal 0.000000e+0 0.000000e+0 -1.000000e+0
    outer loop
      vertex 0.000000e+0 0.000000e+0 1.400000e+1
      vertex 1.000000e+1 0.000000e+0 1.400000e+1
      vertex 9.659258e+0 -2.588190e+0 1.400000e+1
    endloop
  endfacet
  facet normal 8.091037e-1 1.065205e-1 5.779312e-1
    outer loop
      vertex 0.000000e+0 0.000000e+0 1.400000e+1
      vertex 1.000000e+1 0.000000e+0 0.000000e+0
      vertex 9.659258e+0 2.588190e+0 0.000000e+0
    endloop
  endfacet
  facet normal 0.000000e+0 0.000000e+0 -1.000000e+0
    outer loop
      vertex 0.000000e+0 0.000000e+0 0.000000e+0
      vertex 9.659258e+0 2.588190e+0 0.000000e+0
      vertex 1.000000e+1 0.000000e+0 0.000000e+0
    endloop
  endfacet
  facet normal 7.539647e-1 3.123024e-1 5.779312e-1
    outer loop
      vertex 0.000000e+0 0.000000e+0 1.400000e+1
      vertex 9.659258e+0 2.588190e+0 0.000000e+0
      vertex 8.660254e+0 5.000000e+0 0.000000e+0
    endloop
  endfacet
  facet normal 0.000000e+0 0.000000e+0 -1.000000e+0
    outer loop
      vertex 0.000000e+0 0.000000e+0 0.000000e+0
      vertex 8.660254e+0 5.000000e+0 0.000000e+0
      vertex 9.659258e+0 2.588190e+0 0.000000e+0
    endloop
  endfacet
  facet normal 6.474441e-1 4.968014e-1 5.779312e-1
    outer loop
      vertex 0.000000e+0 0.000000e+0 1.400000e+1
      vertex 8.660254e+0 5.000000e+0 0.000000e+0
      vertex 7.071068e+0 7.071068e+0 0.000000e+0
    endloop
  endfacet
  facet normal 0.000000e+0 0.000000e+0 -1.000000e+0
    outer loop
      vertex 0.000000e+0 0.000000e+0 0.000000e+0
      vertex 7.071068e+0 7.071068e+0 0.000000e+0
      vertex 8.660254e+0 5.000000e+0 0.000000e+0
    endloop
  endfacet
  facet normal 4.968014e-1 6.474441e-1 5.779312e-1
    outer loop
      vertex 0.000000e+0 0.000000e+0 1.400000e+1
      vertex 7.071068e+0 7.071068e+0 0.000000e+0
      vertex 5.000000e+0 8.660254e+0 0.000000e+0
    endloop
  endfacet
  facet normal 0.000000e+0 0.000000e+0 -1.000000e+0
    outer loop
      vertex 0.000000e+0 0.000000e+0 0.000000e+0
      vertex 5.000000e+0 8.660254e+0 0.000000e+0
      vertex 7.071068e+0 7.071068e+0 0.000000e+0
    endloop
  endfacet
  facet normal 3.123024e-1 7.539647e-1 5.779312e-1
    outer loop
      vertex 0.000000e+0 0.000000e+0 1.400000e+1
      vertex 5.000000e+0 8.660254e+0 0.000000e+0
      vertex 2.588190e+0 9.659258e+0 0.000000e+0
    endloop
  endfacet
  facet normal 0.000000e+0 0.000000e+0 -1.000000e+0
    outer loop
      vertex 0.000000e+0 0.000000e+0 0.000000e+0
      vertex 2.588190e+0 9.659258e+0 0.000000e+0
      vertex 5.000000e+0 8.660254e+0 0.000000e+0
    endloop
  endfacet
  facet normal 1.065205e-1 8.091037e-1 5.779312e-1
    outer loop
      vertex 0.000000e+0 0.000000e+0 1.400000e+1
      vertex 2.588190e+0 9.659258e+0 0.000000e+0
      vertex 6.123234e-16 1.000000e+1 0.000000e+0
    endloop
  endfacet
  facet normal 0.000000e+0 0.000000e+0 -1.000000e+0
    outer loop
      vertex 0.000000e+0 0.000000e+0 0.000000e+0
      vertex 6.123234e-16 1.000000e+1 0.000000e+0
      vertex 2.588190e+0 9.659258e+0 0.000000e+0
    endloop
  endfacet
  facet normal -1.065205e-1 8.091037e-1 5.779312e-1
    outer loop
      vertex 0.000000e+0 0.000000e+0 1.400000e+1
      vertex 6.123234e-16 1.000000e+1 0.000000e+0
      vertex -2.588190e+0 9.659258e+0 0.000000e+0
    endloop
  endfacet
  facet normal 0.000000e+0 0.000000e+0 -1.000000e+0
    outer loop
      vertex 0.000000e+0 0.000000e+0 0.000000e+0
      vertex -2.588190e+0 9.659258e+0 0.000000e+0
      vertex 6.123234e-16 1.000000e+1 0.000000e+0
    endloop
  endfacet
  facet normal -3.123024e-1 7.539647e-1 5.779312e-1
    outer loop
      vertex 0.000000e+0 0.000000e+0 1.400000e+1
      vertex -2.588190e+0 9.659258e+0 0.000000e+0
      vertex -5.000000e+0 8.660254e+0 0.000000e+0
    endloop
  endfacet
  facet normal 0.000000e+0 0.000000e+0 -1.000000e+0
    outer loop
      vertex 0.000000e+0 0.000000e+0 0.000000e+0
      vertex -5.000000e+0 8.660254e+0 0.000000e+0
      vertex -2.588190e+0 9.659258e+0 0.000000e+0
    endloop
  endfacet
  facet normal -4.968014e-1 6.474441e-1 5.779312e-1
    outer loop
      vertex 0.000000e+0 0.000000e+0 1.400000e+1
      vertex -5.000000e+0 8.660254e+0 0.000000e+0
      vertex -7.071068e+0 7.071068e+0 0.000000e+0
    endloop
  endfacet
  facet normal 0.000000e+0 0.000000e+0 -1.000000e+0
    outer loop
      vertex 0.000000e+0 0.000000e+0 0.000000e+0
      vertex -7.071068e+0 7.071068e+0 0.000000e+0
      vertex -5.000000e+0 8.660254e+0 0.000000e+0
    endloop
  endfacet
  facet normal -6.474441e-1 4.968014e-1 5.779312e-1
    outer loop
      vertex 0.000000e+0 0.000000e+0 1.400000e+1
      vertex -7.071068e+0 7.071068e+0 0.000000e+0
      vertex -8.660254e+0 5.000000e+0 0.000000e+0
    endloop
  endfacet
  facet normal 0.000000e+0 0.000000e+0 -1.000000e+0
    outer loop
      vertex 0.000000e+0 0.000000e+0 0.000000e+0
      vertex -8.660254e+0 5.000000e+0 0.000000e+0
      vertex -7.071068e+0 7.071068e+0 0.000000e+0
    endloop
  endfacet
  facet normal -7.539647e-1 3.123024e-1 5.779312e-1
    outer loop
      vertex 0.000000e+0 0.000000e+0 1.400000e+1
      vertex -8.660254e+0 5.000000e+0 0.000000e+0
      vertex -9.659258e+0 2.588190e+0 0.000000e+0
    endloop
  endfacet
  facet normal 0.000000e+0 0.000000e+0 -1.000000e+0
    outer loop
      vertex 0.000000e+0 0.000000e+0 0.000000e+0
      vertex -9.659258e+0 2.588190e+0 0.000000e+0
      vertex -8.660254e+0 5.000000e+0 0.000000e+0
    endloop
  endfacet
  facet normal -8.091037e-1 1.065205e-1 5.779312e-1
    outer loop
      vertex 0.000000e+0 0.000000e+0 1.400000e+1
      vertex -9.659258e+0 2.588190e+0 0.000000e+0
      vertex -1.000000e+1 1.224647e-15 0.000000e+0
    endloop
  endfacet
  facet normal 0.000000e+0 0.000000e+0 -1.000000e+0
    outer loop
      vertex 0.000000e+0 0.000000e+0 0.000000e+0
      vertex -1.000000e+1 1.224647e-15 0.000000e+0
      vertex -9.659258e+0 2.588190e+0 0.000000e+0
    endloop
  endfacet
  facet normal -8.091037e-1 -1.065205e-1 5.779312e-1
    outer loop
      vertex 0.000000e+0 0.000000e+0 1.400000e+1
      vertex -1.000000e+1 1.224647e-15 0.000000e+0
      vertex -9.659258e+0 -2.588190e+0 0.000000e+0
    endloop
  endfacet
  facet normal 0.000000e+0 0.000000e+0 -1.000000e+0
    outer loop
      vertex 0.000000e+0 0.000000e+0 0.000000e+0
      vertex -9.659258e+0 -2.588190e+0 0.000000e+0
      vertex -1.000000e+1 1.224647e-15 0.000000e+0
    endloop
  endfacet
  facet normal -7.539647e-1 -3.123024e-1 5.779312e-1
    outer loop
      vertex 0.000000e+0 0.000000e+0 1.400000e+1
      vertex -9.659258e+0 -2.588190e+0 0.000000e+0
      vertex -8.660254e+0 -5.000000e+0 0.000000e+0
    endloop
  endfacet
  facet normal 0.000000e+0 0.000000e+0 -1.000000e+0
    outer loop
      vertex 0.000000e+0 0.000000e+0 0.000000e+0
      vertex -8.660254e+0 -5.000000e+0 0.000000e+0
      vertex -9.659258e+0 -2.588190e+0 0.000000e+0
    endloop
  endfacet
  facet normal -6.474441e-1 -4.968014e-1 5.779312e-1
    outer loop
      vertex 0.000000e+0 0.000000e+0 1.400000e+1
      vertex -8.660254e+0 -5.000000e+0 0.000000e+0
      vertex -7.071068e+0 -7.071068e+0 0.000000e+0
    endloop
  endfacet
  facet normal 0.000000e+0 0.000000e+0 -1.000000e+0
    outer loop
      vertex 0.000000e+0 0.000000e+0 0.000000e+0
      vertex -7.071068e+0 -7.071068e+0 0.000000e+0
      vertex -8.660254e+0 -5.000000e+0 0.000000e+0
    endloop
  endfacet
  facet normal -4.968014e-1 -6.474441e-1 5.779312e-1
    outer loop
      vertex 0.000000e+0 0.000000e+0 1.400000e+1
      vertex -7.071068e+0 -7.071068e+0 0.000000e+0
      vertex -5.000000e+0 -8.660254e+0 0.000000e+0
    endloop
  endfacet
  facet normal 0.000000e+0 0.000000e+0 -1.000000e+0
    outer loop
      vertex 0.000000e+0 0.000000e+0 0.000000e+0
      vertex -5.000000e+0 -8.660254e+0 0.000000e+0
      vertex -7.071068e+0 -7.071068e+0 0.000000e+0
    endloop
  endfacet
  facet normal -3.123024e-1 -7.539647e-1 5.779312e-1
    outer loop
      vertex 0.000000e+0 0.000000e+0 1.400000e+1
      vertex -5.000000e+0 -8.660254e+0 0.000000e+0
      vertex -2.588190e+0 -9.659258e+0 0.000000e+0
    endloop
  endfacet
  facet normal 0.000000e+0 0.000000e+0 -1.000000e+0
    outer loop
      vertex 0.000000e+0 0.000000e+0 0.000000e+0
      vertex -2.588190e+0 -9.659258e+0 0.000000e+0
      vertex -5.000000e+0 -8.660254e+0 0.000000e+0
    endloop
  endfacet
  facet normal -1.065205e-1 -8.091037e-1 5.779312e-1
    outer loop
      vertex 0.000000e+0 0.000000e+0 1.400000e+1
      vertex -2.588190e+0 -9.659258e+0 0.000000e+0
      vertex -1.836970e-15 -1.000000e+1 0.000000e+0
    endloop
  endfacet
  facet normal 0.000000e+0 0.000000e+0 -1.000000e+0
    outer loop
      vertex 0.000000e+0 0.000000e+0 0.000000e+0
      vertex -1.836970e-15 -1.000000e+1 0.000000e+0
      vertex -2.588190e+0 -9.659258e+0 0.000000e+0
    endloop
  endfacet
  facet normal 1.065205e-1 -8.091037e-1 5.779312e-1
    outer loop
      vertex 0.000000e+0 0.000000e+0 1.400000e+1
      vertex -1.836970e-15 -1.000000e+1 0.000000e+0
      vertex 2.588190e+0 -9.659258e+0 0.000000e+0
    endloop
  endfacet
  facet normal 0.000000e+0 0.000000e+0 -1.000000e+0
    outer loop
      vertex 0.000000e+0 0.000000e+0 0.000000e+0
      vertex 2.588190e+0 -9.659258e+0 0.000000e+0
      vertex -1.836970e-15 -1.000000e+1 0.000000e+0
    endloop
  endfacet
  facet normal 3.123024e-1 -7.539647e-1 5.779312e-1
    outer loop
      vertex 0.000000e+0 0.000000e+0 1.400000e+1
      vertex 2.588190e+0 -9.659258e+0 0.000000e+0
      vertex 5.000000e+0 -8.660254e+0 0.000000e+0
    endloop
  endfacet
  facet normal 0.000000e+0 0.000000e+0 -1.000000e+0
    outer loop
      vertex 0.000000e+0 0.000000e+0 0.000000e+0
      vertex 5.000000e+0 -8.660254e+0 0.000000e+0
      vertex 2.588190e+0 -9.659258e+0 0.000000e+0
    endloop
  endfacet
  facet normal 4.968014e-1 -6.474441e-1 5.779312e-1
    outer loop
      vertex 0.000000e+0 0.000000e+0 1.400000e+1
      vertex 5.000000e+0 -8.660254e+0 0.000000e+0
      vertex 7.071068e+0 -7.071068e+0 0.000000e+0
    endloop
  endfacet
  facet normal 0.000000e+0 0.000000e+0 -1.000000e+0
    outer loop
      vertex 0.000000e+0 0.000000e+0 0.000000e+0
      vertex 7.071068e+0 -7.071068e+0 0.000000e+0
      vertex 5.000000e+0 -8.660254e+0 0.000000e+0
    endloop
  endfacet
  facet normal 6.474441e-1 -4.968014e-1 5.779312e-1
    outer loop
      vertex 0.000000e+0 0.000000e+0 1.400000e+1
      vertex 7.071068e+0 -7.071068e+0 0.000000e+0
      vertex 8.660254e+0 -5.000000e+0 0.000000e+0
    endloop
  endfacet
  facet normal 0.000000e+0 0.000000e+0 -1.000000e+0
    outer loop
      vertex 0.000000e+0 0.000000e+0 0.000000e+0
      vertex 8.660254e+0 -5.000000e+0 0.000000e+0
      vertex 7.071068e+0 -7.071068e+0 0.000000e+0
    endloop
  endfacet
  facet normal 7.539647e-1 -3.123024e-1 5.779312e-1
    outer loop
      vertex 0.000000e+0 0.000000e+0 1.400000e+1
      vertex 8.660254e+0 -5.000000e+0 0.000000e+0
      vertex 9.659258e+0 -2.588190e+0 0.000000e+0
    endloop
  endfacet
  facet normal 0.000000e+0 0.000000e+0 -1.000000e+0
    outer loop
      vertex 0.000000e+0 0.000000e+0 0.000000e+0
      vertex 9.659258e+0 -2.588190e+0 0.000000e+0
      vertex 8.660254e+0 -5.000000e+0 0.000000e+0
    endloop
  endfacet
  facet normal 8.091037e-1 -1.065205e-1 5.779312e-1
    outer loop
      vertex 0.000000e+0 0.000000e+0 1.400000e+1
      vertex 9.659258e+0 -2.588190e+0 0.000000e+0
      vertex 1.000000e+1 0.000000e+0 0.000000e+0
    endloop
  endfacet
  facet normal 0.000000e+0 0.000000e+0 -1.000000e+0
    outer loop
      vertex 0.000000e+0 0.000000e+0 0.000000e+0
      vertex 1.000000e+1 0.000000e+0 0.000000e+0
      vertex 9.659258e+0 -2.588190e+0 0.000000e+0
    endloop
  endfacet
endsolid games/m4tch-666ax
